<?xml version="1.0" encoding="iso-8859-1"?>
<!-- Generator: Adobe Illustrator 19.0.0, SVG Export Plug-In . SVG Version: 6.00 Build 0)  -->
<svg version="1.1" id="Layer_1" xmlns="http://www.w3.org/2000/svg" xmlns:xlink="http://www.w3.org/1999/xlink" x="0px" y="0px"
	 viewBox="0 0 512 512" style="enable-background:new 0 0 512 512;" xml:space="preserve">
<g>
	<g>
		<path d="M276.378,88.626h-4.702V0h-31.352v88.626h-4.702c-69.012,0-125.159,56.147-125.159,125.159v173.056
			C110.463,455.854,166.61,512,235.622,512h40.756c69.012,0,125.159-56.147,125.159-125.159V213.785
			C401.537,144.773,345.39,88.626,276.378,88.626z M242.676,173.653h26.647v55.593h-26.647V173.653z M370.185,386.841
			c0,51.726-42.082,93.807-93.807,93.807h-40.756c-51.725,0-93.807-42.082-93.807-93.807V213.785
			c0-51.725,42.082-93.807,93.807-93.807h4.702V142.3h-29v118.297h29v49.119h31.352v-49.119h29V142.301h-29V119.98h4.702
			c51.725,0,93.807,42.082,93.807,93.807V386.841z"/>
	</g>
</g>
<g>
</g>
<g>
</g>
<g>
</g>
<g>
</g>
<g>
</g>
<g>
</g>
<g>
</g>
<g>
</g>
<g>
</g>
<g>
</g>
<g>
</g>
<g>
</g>
<g>
</g>
<g>
</g>
<g>
</g>
</svg>
